# xmcd CD database file
#
# Track frame offsets:
#	150
#	27657
#	42769
#	57942
#	75819
#	91221
#	109879
#	120745
#	141951
#	159450
#	181573
#	194934
#	210597
#	231506
#	247698
#	253655
#	286091
#
# Disc length: 3851 seconds
#
# Revision: 10
# Processed by: cddbd v1.5.2PL0 Copyright (c) Steve Scherf et al.
# Submitted via: CDex 1.51
#
DISCID=e50f0911
DTITLE=Various Artist - Mulheres Apaixonadas Vol 2
DYEAR=2003
DGENRE=Folk-Rock
TTITLE0=Diana Krall - I've Got You Under My Skin
TTITLE1=Tony Bennett - La Vie En Rose
TTITLE2=Jota Quest - Amor Maior
TTITLE3=Renato Russo - Mais Uma Vez
TTITLE4=Rod Stewart - They Can't Take That Away From Me
TTITLE5=Intern.Diversas, Natalie Cole - Tell Me All About It
TTITLE6=Intern.Diversas, Peter Jones - Fly Me To The Moon
TTITLE7=Skank - Dois Rios
TTITLE8=Capital Inicial - Incondicionalmente
TTITLE9=Nacion.Diversas, Paula Lima - Serenata do Luar
TTITLE10=Dick Farney - Nick Bar
TTITLE11=Nacion.Diversas, Elisa Lucinda - Alguém Como Tu
TTITLE12=Nacion.Diversas, Alberto Rosemblit - De Bem Com a Vida
TTITLE13=Nacion.Diversas, Leo Gendelman - As Rosas Não Falam
TTITLE14=Intern.Diversas, Heaven - Dreams
TTITLE15=Intern.Diversas, Insoul - Jazzy+Funky+Bossa=Cool
TTITLE16=Various Artist - - DATA
EXTD=YEAR: 2003
EXTT0=
EXTT1=
EXTT2=
EXTT3=
EXTT4=
EXTT5=
EXTT6=
EXTT7=
EXTT8=
EXTT9=
EXTT10=
EXTT11=
EXTT12=
EXTT13=
EXTT14=
EXTT15=
EXTT16=
PLAYORDER=
